<?xml version="1.0" encoding="utf-8"?>
<svg viewBox="0 0 445 132" xmlns="http://www.w3.org/2000/svg">
  <g transform="matrix(1, 0, 0, 1, -99.5, -84.179749)">
    <g>
      <g>
        <path class="st0" d="M99.5,99.94h23.73c16.3,0,23.31,7.58,23.31,23.02v4c0,10.3-3.15,16.73-10.15,19.59v0.29 c8.44,2.86,11.73,10.29,11.73,20.87v8.58c0,15.44-8.15,23.73-23.88,23.73H99.5V99.94z M121.38,140.69 c5.86,0,9.44-2.57,9.44-10.58v-5.58c0-7.15-2.43-10.3-8.01-10.3h-7.58v26.45H121.38z M124.24,185.73c5.29,0,8.15-2.43,8.15-9.87 v-8.72c0-9.3-3-12.16-10.15-12.16h-7.01v30.74H124.24z" style="fill: rgb(49, 169, 184);"/>
        <path class="st0" d="M153.26,190.59v-52.62c0-16.02,8.44-25.17,23.88-25.17s23.88,9.15,23.88,25.17v52.62 c0,16.01-8.44,25.16-23.88,25.16S153.26,206.6,153.26,190.59z M185.29,191.59v-54.62c0-7.15-3.15-9.87-8.15-9.87 c-5,0-8.15,2.72-8.15,9.87v54.62c0,7.15,3.15,9.87,8.15,9.87C182.14,201.46,185.29,198.74,185.29,191.59z" style="fill: rgb(49, 169, 184);"/>
        <path class="st0" d="M207.59,162v-52.62c0-16.02,8.44-25.17,23.88-25.17s23.88,9.15,23.88,25.17V162 c0,16.01-8.44,25.16-23.88,25.16S207.59,178.01,207.59,162z M239.62,163v-54.62c0-7.15-3.15-9.87-8.15-9.87s-8.15,2.72-8.15,9.87 V163c0,7.15,3.15,9.87,8.15,9.87S239.62,170.14,239.62,163z" style="fill: rgb(49, 169, 184);"/>
        <path class="st0" d="M285.23,155.99l-6.44,12.58v31.45h-15.73V99.94h15.73v43.04l19.73-43.04h16.02l-18.73,36.75l19.02,63.34 h-16.44L285.23,155.99z" style="fill: rgb(49, 169, 184);"/>
        <path class="st0" d="M315.54,176.29v-5.72h14.87v6.86c0,7.15,3.15,9.72,8.15,9.72c5.01,0,8.29-2.57,8.29-10.01 c0-8.29-3.43-13.44-13.73-22.45c-13.15-11.58-17.59-19.87-17.59-31.32c0-15.73,8.15-24.88,23.45-24.88 c15.3,0,22.88,9.15,22.88,25.17v4.15h-14.87v-5.15c0-7.15-2.86-9.87-7.86-9.87s-8.01,2.72-8.01,9.58 c0,7.29,3.57,12.44,13.87,21.45c13.15,11.58,17.44,19.73,17.44,32.17c0,16.3-8.29,25.45-23.73,25.45 C323.26,201.46,315.54,192.31,315.54,176.29z" style="fill: rgb(49, 169, 184);"/>
        <path class="st0" d="M364.72,99.94h15.16l7.15,78.36l7.58-78.36h17.16l7.58,78.36l7.15-78.36h13.58l-10.15,100.09h-19.59 l-7.29-68.77l-7.29,68.77h-20.88L364.72,99.94z" style="fill: rgb(49, 169, 184);"/>
        <path class="st0" d="M474.53,180.44h-18.16l-2.72,19.59h-14.59l16.3-100.09h21.31l16.3,100.09h-15.73L474.53,180.44z M472.53,166.85l-7.15-50.47l-7.01,50.47H472.53z" style="fill: rgb(49, 169, 184);"/>
        <path class="st0" d="M497.54,99.94h23.16c15.73,0,23.45,8.72,23.45,24.74v9.87c0,16.02-7.72,24.74-23.45,24.74h-7.43v40.75 h-15.73V99.94z M520.71,144.98c5,0,7.72-2.29,7.72-9.44v-11.87c0-7.15-2.72-9.44-7.72-9.44h-7.43v30.74H520.71z" style="fill: rgb(49, 169, 184);"/>
      </g>
    </g>
  </g>
</svg>